<svg width="53" height="88" viewBox="0 0 53 88" version="1.1" xmlns="http://www.w3.org/2000/svg" xmlns:xlink="http://www.w3.org/1999/xlink">
<title>Illustration</title>
<desc>Created using Figma</desc>
<g id="Canvas" transform="translate(-6428 -412)">
<g id="Illustration">
<g id="Fill 1">
<use xlink:href="#path0_fill" transform="translate(6429.37 433.766)" fill="#F2F2F3"/>
</g>
<g id="Fill 3">
<use xlink:href="#path1_fill" transform="translate(6435.09 465.559)" fill="#F2F2F3"/>
</g>
<g id="Stroke 5">
<use xlink:href="#path2_stroke" transform="translate(6448.94 438.836)" fill="#DEDEE2"/>
</g>
<g id="Stroke 7">
<use xlink:href="#path3_stroke" transform="translate(6429.37 433.766)" fill="#DEDEE2"/>
</g>
<g id="Group 12">
<g id="Fill 9">
<use xlink:href="#path4_fill" transform="translate(6438.21 466.387)" fill="#F2F2F3"/>
</g>
<g id="Stroke 11">
<use xlink:href="#path5_stroke" transform="translate(6438.21 466.387)" fill="#DEDEE2"/>
</g>
</g>
<g id="Fill 13">
<use xlink:href="#path6_fill" transform="translate(6439.71 433.669)" fill="#FFFFFF"/>
</g>
<g id="Fill 15">
<use xlink:href="#path7_fill" transform="translate(6463.48 462.575)" fill="#FFFFFF"/>
</g>
<g id="Stroke 17">
<use xlink:href="#path8_stroke" transform="translate(6448.99 438.709)" fill="#DEDEE2"/>
</g>
<g id="Stroke 19">
<use xlink:href="#path9_stroke" transform="translate(6439.71 433.669)" fill="#DEDEE2"/>
</g>
<g id="Group 24">
<g id="Fill 21">
<use xlink:href="#path10_fill" transform="translate(6463.78 465.016)" fill="#F2F2F3"/>
</g>
<g id="Stroke 23">
<use xlink:href="#path11_stroke" transform="translate(6463.78 465.016)" fill="#DEDEE2"/>
</g>
</g>
<g id="Stroke 25">
<use xlink:href="#path12_stroke" transform="translate(6438.8 414.367)" fill="#DEDEE2"/>
</g>
<g id="Fill 27">
<use xlink:href="#path13_fill" transform="translate(6463 434.09)" fill="#FFFFFF"/>
<use xlink:href="#path14_stroke" transform="translate(6463 434.09)" fill="#DEDEE2"/>
</g>
<g id="Fill 29">
<use xlink:href="#path15_fill" transform="translate(6461 449)" fill="#FFFFFF"/>
<use xlink:href="#path16_stroke" transform="translate(6461 449)" fill="#DEDEE2"/>
</g>
</g>
</g>
<defs>
<path id="path0_fill" fill-rule="evenodd" d="M 28.7337 12.5008C 27.701 14.2923 25.5823 15.2501 23.5587 14.8419C 20.215 14.1663 18.5461 10.4637 20.253 7.50407C 21.2864 5.71321 23.4051 4.75476 25.4287 5.16364C 28.7724 5.83925 30.4399 9.54187 28.7337 12.5008ZM 37.8463 21.7892C 40.4681 13.5772 36.2878 4.57303 28.3352 1.27782C 19.6059 -2.33908 9.68079 2.00032 6.35172 10.7876C 3.90172 17.2542 5.7191 24.2938 10.4085 28.7958L 7.32587 36.9317L 10.6615 38.3451L 5.4039 42.0031L 9.29464 43.4832L 3.31006 47.5303L 7.18033 49.0617L 1.52046 52.2536L 0 56.2648L 3.05336 63.4978C 3.50752 64.5728 4.66743 65.0857 5.72934 64.8065L 18.2375 31.7936L 22.5758 33.4437L 22.5824 33.4269C 29.3561 33.1653 35.6215 28.7563 37.8463 21.7892Z"/>
<path id="path1_fill" fill-rule="evenodd" d="M 0 33.013C 0.21794 32.9558 0.432955 32.8774 0.634806 32.7499L 5.8054 29.5038C 6.22081 29.2429 6.53967 28.8531 6.713 28.3944L 16.8465 1.65017L 12.5082 0L 0 33.013Z"/>
<path id="path2_stroke" d="M 0.677842 2.43405L 1.54404 2.93375L 1.54423 2.93342L 0.677842 2.43405ZM 3.98278 9.77116L 4.18076 8.79096L 4.18067 8.79094L 3.98278 9.77116ZM 9.1585 7.43073L 10.0246 7.93052L 10.0248 7.93018L 9.1585 7.43073ZM 6.05154 -0.886588C 3.6054 -1.38066 1.05846 -0.228791 -0.188543 1.93467L 1.54423 2.93342C 2.36254 1.5137 4.053 0.750135 5.65558 1.07382L 6.05154 -0.886588ZM -0.188355 1.93435C -2.23585 5.48353 -0.230077 9.94085 3.7849 10.7514L 4.18067 8.79094C 1.5097 8.25173 0.177628 5.30232 1.54404 2.93375L -0.188355 1.93435ZM 3.7848 10.7514C 6.23135 11.2455 8.77712 10.0925 10.0246 7.93052L 8.29235 6.93094C 7.4731 8.3507 5.78294 9.11456 4.18076 8.79096L 3.7848 10.7514ZM 10.0248 7.93018C 12.0713 4.38044 10.0665 -0.0751794 6.05165 -0.886566L 5.65547 1.0738C 8.32657 1.61362 9.65817 4.5618 8.29216 6.93128L 10.0248 7.93018Z"/>
<path id="path3_stroke" d="M 22.5824 33.4265L 22.5439 32.4272C 22.1427 32.4426 21.7896 32.6966 21.6473 33.0721L 22.5824 33.4265ZM 37.8456 21.7888L 36.8929 21.4846L 36.8929 21.4846L 37.8456 21.7888ZM 28.3352 1.27813L 27.9523 2.20194L 27.9524 2.20198L 28.3352 1.27813ZM 6.35099 10.7871L 5.41586 10.4328L 5.41585 10.4328L 6.35099 10.7871ZM 10.4077 28.7962L 11.3429 29.1505C 11.4849 28.7758 11.3894 28.3525 11.1004 28.0749L 10.4077 28.7962ZM 7.32513 36.9312L 6.39002 36.5769C 6.19966 37.0793 6.44024 37.6423 6.93487 37.8519L 7.32513 36.9312ZM 10.6615 38.3455L 11.2326 39.1663C 11.5315 38.9584 11.6938 38.6044 11.6562 38.2422C 11.6186 37.88 11.3871 37.5669 11.0518 37.4248L 10.6615 38.3455ZM 5.4039 42.0034L 4.83278 41.1825C 4.52835 41.3943 4.36614 41.7572 4.41135 42.1253C 4.45657 42.4934 4.70178 42.8062 5.04842 42.9381L 5.4039 42.0034ZM 9.29391 43.4828L 9.85409 44.3112C 10.1633 44.1021 10.3303 43.7383 10.2872 43.3675C 10.2442 42.9967 9.99825 42.6808 9.64939 42.5481L 9.29391 43.4828ZM 3.30933 47.5299L 2.74915 46.7015C 2.44197 46.9092 2.27496 47.2699 2.31525 47.6385C 2.35553 48.0071 2.5965 48.3232 2.94129 48.4597L 3.30933 47.5299ZM 7.18033 49.0621L 7.67142 49.9332C 8.00719 49.7439 8.20428 49.3784 8.178 48.9939C 8.15173 48.6093 7.90676 48.2741 7.54836 48.1322L 7.18033 49.0621ZM 1.51973 52.2532L 1.02864 51.3821C 0.824694 51.4971 0.667552 51.68 0.5846 51.8989L 1.51973 52.2532ZM 0 56.2643L -0.935131 55.91C -1.02618 56.1504 -1.02122 56.4165 -0.921277 56.6532L 0 56.2643ZM 3.05336 63.4974L 3.97478 63.1088L 3.97464 63.1085L 3.05336 63.4974ZM 6.36415 64.543L 5.83244 63.6961L 5.83224 63.6962L 6.36415 64.543ZM 11.5347 61.2969L 12.0665 62.1439L 12.0672 62.1434L 11.5347 61.2969ZM 13.3775 60.5419L 23.5175 33.7808L 21.6473 33.0721L 11.5072 59.8332L 13.3775 60.5419ZM 22.6209 34.4257C 29.7996 34.1493 36.4407 29.4757 38.7982 22.093L 36.8929 21.4846C 34.8009 28.036 28.9126 32.1819 22.5439 32.4272L 22.6209 34.4257ZM 38.7982 22.093C 41.5788 13.3859 37.1503 3.84783 28.7179 0.354283L 27.9524 2.20198C 35.4238 5.2974 39.3574 13.7676 36.8929 21.4846L 38.7982 22.093ZM 28.718 0.354323C 19.4645 -3.48053 8.94378 1.12149 5.41586 10.4328L 7.28611 11.1414C 10.4163 2.87978 19.7472 -1.19846 27.9523 2.20194L 28.718 0.354323ZM 5.41585 10.4328C 2.81902 17.287 4.74746 24.7467 9.71508 29.5174L 11.1004 28.0749C 6.69075 23.84 4.98295 17.2205 7.28612 11.1414L 5.41585 10.4328ZM 9.47263 28.4418L 6.39002 36.5769L 8.26025 37.2856L 11.3429 29.1505L 9.47263 28.4418ZM 6.93487 37.8519L 10.2713 39.2662L 11.0518 37.4248L 7.7154 36.0105L 6.93487 37.8519ZM 10.0904 37.5246L 4.83278 41.1825L 5.97501 42.8243L 11.2326 39.1663L 10.0904 37.5246ZM 5.04842 42.9381L 8.93843 44.4175L 9.64939 42.5481L 5.75937 41.0687L 5.04842 42.9381ZM 8.73373 42.6545L 2.74915 46.7015L 3.86951 48.3582L 9.85409 44.3112L 8.73373 42.6545ZM 2.94129 48.4597L 6.81229 49.9919L 7.54836 48.1322L 3.67736 46.6L 2.94129 48.4597ZM 6.68924 48.1909L 1.02864 51.3821L 2.01082 53.1243L 7.67142 49.9332L 6.68924 48.1909ZM 0.5846 51.8989L -0.935131 55.91L 0.935131 56.6186L 2.45486 52.6075L 0.5846 51.8989ZM -0.921277 56.6532L 2.13208 63.8863L 3.97464 63.1085L 0.921277 55.8754L -0.921277 56.6532ZM 2.13193 63.886C 2.91741 65.7486 5.18313 66.4658 6.89606 65.3898L 5.83224 63.6962C 5.16537 64.1151 4.28193 63.8372 3.97478 63.1088L 2.13193 63.886ZM 6.89585 65.39L 12.0665 62.1439L 11.003 60.45L 5.83244 63.6961L 6.89585 65.39ZM 12.0672 62.1434C 12.6113 61.7857 13.134 61.1467 13.3773 60.5423L 11.5074 59.8328C 11.4025 60.1458 11.2875 60.2865 11.0023 60.4505L 12.0672 62.1434Z"/>
<path id="path4_fill" fill-rule="evenodd" d="M 9.08036 0L 0 23.9641L 9.08036 0Z"/>
<path id="path5_stroke" d="M 10.0155 0.354331C 10.2112 -0.162122 9.95114 -0.739429 9.43469 -0.93512C 8.91824 -1.13081 8.34093 -0.870783 8.14524 -0.354331L 10.0155 0.354331ZM -0.93512 23.6098C -1.13081 24.1263 -0.870783 24.7036 -0.354331 24.8993C 0.162122 25.0949 0.739429 24.8349 0.93512 24.3185L -0.93512 23.6098ZM 8.14524 -0.354331L -0.93512 23.6098L 0.93512 24.3185L 10.0155 0.354331L 8.14524 -0.354331Z"/>
<path id="path6_fill" fill-rule="evenodd" d="M 19.0383 9.06102C 19.4339 11.0915 18.4649 13.2084 16.6702 14.2321C 13.7068 15.9226 10.0208 14.2292 9.3677 10.8746C 8.97278 8.84339 9.94254 6.72718 11.7365 5.70352C 14.7007 4.01305 18.3852 5.70718 19.0383 9.06102ZM 31.9985 10.0686C 28.5926 2.15037 19.5378 -1.88786 11.3812 0.860713C 2.42734 3.87748 -2.2123 13.6818 1.03779 22.4983C 3.42928 28.9869 9.41459 33.0992 15.9016 33.4084L 18.9104 41.5713L 22.3528 40.4421L 20.7863 46.6603L 24.6894 45.2161L 22.8304 52.2058L 26.7533 50.8143L 24.5768 56.9461L 26.06 60.9704L 33.1035 64.4151C 34.1508 64.9273 35.3619 64.5506 35.9799 63.6413L 23.7709 30.5162L 28.1238 28.9056L 28.1172 28.8887C 33.0538 24.2342 34.888 16.7858 31.9985 10.0686Z"/>
<path id="path7_fill" fill-rule="evenodd" d="M 12.209 34.7357C 12.3356 34.5488 12.446 34.3488 12.5155 34.1194L 14.2861 28.2691C 14.4279 27.7994 14.4133 27.296 14.2436 26.8351L 4.35296 0L 0 1.6106L 12.209 34.7357Z"/>
<path id="path8_stroke" d="M 0.0874688 5.83413L -0.894137 6.02505L -0.894102 6.02523L 0.0874688 5.83413ZM 7.38993 9.19163L 7.8855 10.0602L 7.88553 10.0602L 7.38993 9.19163ZM 9.75802 4.02055L 10.7396 3.82963L 10.7396 3.82942L 9.75802 4.02055ZM 1.96084 -0.205582C -0.207311 1.03108 -1.37071 3.57481 -0.894137 6.02505L 1.06907 5.64321C 0.755794 4.03251 1.53046 2.34236 2.95174 1.53169L 1.96084 -0.205582ZM -0.894102 6.02523C -0.110621 10.0495 4.32506 12.0916 7.8855 10.0602L 6.89436 8.32306C 4.52654 9.67404 1.59174 8.32785 1.06904 5.64303L -0.894102 6.02523ZM 7.88553 10.0602C 10.0529 8.82349 11.2162 6.27982 10.7396 3.82963L 8.77642 4.21148C 9.08971 5.82223 8.31498 7.51245 6.89433 8.32308L 7.88553 10.0602ZM 10.7396 3.82942C 9.95609 -0.194101 5.5205 -2.23619 1.96079 -0.205554L 2.95179 1.53166C 5.31889 0.181351 8.25378 1.52754 8.77646 4.21169L 10.7396 3.82942Z"/>
<path id="path9_stroke" d="M 28.1177 28.8887L 27.4316 28.1612C 27.1401 28.4361 27.0408 28.8585 27.1794 29.2346L 28.1177 28.8887ZM 31.9982 10.0686L 31.0796 10.4637L 31.0796 10.4637L 31.9982 10.0686ZM 11.3809 0.860713L 11.7002 1.80837L 11.7002 1.80836L 11.3809 0.860713ZM 1.0375 22.4983L 0.099194 22.8442L 0.0991994 22.8442L 1.0375 22.4983ZM 15.9021 33.4084L 16.8404 33.0626C 16.7015 32.6858 16.3508 32.4286 15.9497 32.4095L 15.9021 33.4084ZM 18.9101 41.5713L 17.9717 41.9171C 18.1578 42.4221 18.7103 42.6892 19.2217 42.5215L 18.9101 41.5713ZM 22.3532 40.4421L 23.3229 40.6865C 23.412 40.3331 23.3017 39.9593 23.0352 39.7107C 22.7686 39.4622 22.3879 39.3784 22.0416 39.4919L 22.3532 40.4421ZM 20.786 46.6603L 19.8163 46.4159C 19.7256 46.7758 19.8417 47.1564 20.1178 47.4044C 20.394 47.6524 20.7848 47.727 21.1329 47.5982L 20.786 46.6603ZM 24.6899 45.2161L 25.6562 45.4732C 25.7523 45.1122 25.6392 44.7278 25.3629 44.4764C 25.0866 44.225 24.6932 44.1486 24.3429 44.2782L 24.6899 45.2161ZM 22.8301 52.2058L 21.8637 51.9487C 21.7683 52.3073 21.8793 52.6893 22.1521 52.9409C 22.4249 53.1925 22.8146 53.2724 23.1644 53.1483L 22.8301 52.2058ZM 26.753 50.8143L 27.6954 51.1488C 27.8244 50.7854 27.7329 50.3801 27.4602 50.1073C 27.1875 49.8345 26.7822 49.7429 26.4187 49.8719L 26.753 50.8143ZM 24.5765 56.9461L 23.6341 56.6115C 23.5559 56.8319 23.5574 57.0727 23.6383 57.292L 24.5765 56.9461ZM 26.0604 60.9704L 25.1222 61.3163C 25.2112 61.5578 25.3899 61.7556 25.6211 61.8687L 26.0604 60.9704ZM 33.104 64.4151L 33.5437 63.517L 33.5433 63.5167L 33.104 64.4151ZM 36.286 63.025L 35.3289 62.7354L 35.3289 62.7354L 36.286 63.025ZM 38.0566 57.1747L 39.0138 57.4643L 39.014 57.4634L 38.0566 57.1747ZM 38.9525 55.3948L 29.056 28.5429L 27.1794 29.2346L 37.0759 56.0865L 38.9525 55.3948ZM 28.8037 29.6163C 34.0341 24.684 35.9787 16.7913 32.9168 9.6734L 31.0796 10.4637C 33.7967 16.7802 32.0744 23.783 27.4316 28.1612L 28.8037 29.6163ZM 32.9168 9.67343C 29.3052 1.27693 19.7119 -3.00188 11.0616 -0.0869302L 11.7002 1.80836C 19.3632 -0.773851 27.8794 3.02381 31.0796 10.4637L 32.9168 9.67343ZM 11.0616 -0.0869441C 1.5709 3.1107 -3.34385 13.5021 0.099194 22.8442L 1.9758 22.1525C -1.07987 13.8615 3.2832 4.64426 11.7002 1.80837L 11.0616 -0.0869441ZM 0.0991994 22.8442C 2.63413 29.7219 8.97972 34.0795 15.8544 34.4073L 15.9497 32.4095C 9.85035 32.1188 4.22385 28.2519 1.9758 22.1525L 0.0991994 22.8442ZM 14.9637 33.7542L 17.9717 41.9171L 19.8484 41.2255L 16.8404 33.0626L 14.9637 33.7542ZM 19.2217 42.5215L 22.6648 41.3923L 22.0416 39.4919L 18.5984 40.6211L 19.2217 42.5215ZM 21.3836 40.1977L 19.8163 46.4159L 21.7556 46.9047L 23.3229 40.6865L 21.3836 40.1977ZM 21.1329 47.5982L 25.0368 46.1539L 24.3429 44.2782L 20.439 45.7224L 21.1329 47.5982ZM 23.7235 44.9589L 21.8637 51.9487L 23.7964 52.463L 25.6562 45.4732L 23.7235 44.9589ZM 23.1644 53.1483L 27.0873 51.7568L 26.4187 49.8719L 22.4958 51.2634L 23.1644 53.1483ZM 25.8106 50.4798L 23.6341 56.6115L 25.5189 57.2806L 27.6954 51.1488L 25.8106 50.4798ZM 23.6383 57.292L 25.1222 61.3163L 26.9987 60.6244L 25.5148 56.6001L 23.6383 57.292ZM 25.6211 61.8687L 32.6646 65.3134L 33.5433 63.5167L 26.4997 60.072L 25.6211 61.8687ZM 32.6642 65.3132C 34.4816 66.203 36.658 65.2485 37.2432 63.3147L 35.3289 62.7354C 35.0994 63.4937 34.2495 63.8625 33.5437 63.517L 32.6642 65.3132ZM 37.2432 63.3147L 39.0138 57.4643L 37.0995 56.885L 35.3289 62.7354L 37.2432 63.3147ZM 39.014 57.4634C 39.1898 56.8358 39.1657 56.0109 38.9525 55.3947L 37.076 56.0866C 37.2021 56.3908 37.2072 56.5727 37.0992 56.8859L 39.014 57.4634Z"/>
<path id="path10_fill" fill-rule="evenodd" d="M 0 0L 8.86242 24.0462L 0 0Z"/>
<path id="path11_stroke" d="M 0.938302 -0.345818C 0.747311 -0.864028 0.172391 -1.12929 -0.345818 -0.938302C -0.864028 -0.747311 -1.12929 -0.172391 -0.938302 0.345818L 0.938302 -0.345818ZM 7.92412 24.392C 8.11511 24.9102 8.69003 25.1755 9.20824 24.9845C 9.72645 24.7935 9.99171 24.2186 9.80072 23.7004L 7.92412 24.392ZM -0.938302 0.345818L 7.92412 24.392L 9.80072 23.7004L 0.938302 -0.345818L -0.938302 0.345818Z"/>
<path id="path12_stroke" d="M 11.5939 26.0947C 10.7795 25.9427 9.99609 26.4796 9.84405 27.2939C 9.69202 28.1083 10.2289 28.8917 11.0433 29.0438L 11.5939 26.0947ZM 16.2459 27.6083L 16.491 29.0882L 16.4913 29.0881L 16.2459 27.6083ZM 27.5606 16.2381L 29.0412 16.4782L 29.0412 16.4782L 27.5606 16.2381ZM 11.5068 0.196536L 11.7518 1.6764L 11.7519 1.67638L 11.5068 0.196536ZM 0.19003 11.566L -1.29059 11.3257L -1.2906 11.3257L 0.19003 11.566ZM 1.33756 22.8207C 1.81717 23.4961 2.75355 23.6549 3.42902 23.1753C 4.1045 22.6957 4.26328 21.7593 3.78367 21.0838L 1.33756 22.8207ZM 11.0433 29.0438C 12.7332 29.3539 14.6528 29.3863 16.491 29.0882L 16.0009 26.1285C 14.4329 26.3944 13.0356 26.3692 11.5939 26.0947L 11.0433 29.0438ZM 16.4913 29.0881C 22.878 28.0292 28.0038 22.8751 29.0412 16.4782L 26.0799 15.998C 25.248 21.1273 21.1135 25.2808 16.0006 26.1285L 16.4913 29.0881ZM 29.0412 16.4782C 30.7486 5.94988 21.7738 -3.02411 11.2618 -1.28331L 11.7519 1.67638C 20.2314 0.272179 27.4602 7.4863 26.0799 15.998L 29.0412 16.4782ZM 11.2619 -1.28332C 4.87489 -0.225995 -0.252362 4.92891 -1.29059 11.3257L 1.67066 11.8063C 2.5032 6.67683 6.63914 2.52277 11.7518 1.6764L 11.2619 -1.28332ZM -1.2906 11.3257C -1.98655 15.6142 -0.907133 19.6593 1.33756 22.8207L 3.78367 21.0838C 1.98048 18.5443 1.10504 15.2917 1.67066 11.8063L -1.2906 11.3257Z"/>
<path id="path13_fill" fill-rule="evenodd" d="M 8.40825 0C 8.40825 4.94099 4.74934 9.01513 0 9.67828C 4.74934 10.3414 8.40825 14.4163 8.40825 19.3573C 8.40825 14.4163 12.0672 10.3414 16.8165 9.67828C 12.0672 9.01513 8.40825 4.94099 8.40825 0Z"/>
<path id="path14_stroke" d="M 8.90825 0C 8.90825 -0.276142 8.6844 -0.5 8.40825 -0.5C 8.13211 -0.5 7.90825 -0.276142 7.90825 0L 8.90825 0ZM 0 9.67828L -0.0691438 9.18308C -0.316174 9.21757 -0.5 9.42885 -0.5 9.67828C -0.5 9.9277 -0.316174 10.139 -0.0691438 10.1735L 0 9.67828ZM 7.90825 19.3573C 7.90825 19.6334 8.13211 19.8573 8.40825 19.8573C 8.6844 19.8573 8.90825 19.6334 8.90825 19.3573L 7.90825 19.3573ZM 16.8165 9.67828L 16.8857 10.1735C 17.1327 10.139 17.3165 9.9277 17.3165 9.67828C 17.3165 9.42885 17.1327 9.21757 16.8857 9.18308L 16.8165 9.67828ZM 8.90825 0C 8.90825 -0.276142 8.6844 -0.5 8.40825 -0.5C 8.13211 -0.5 7.90825 -0.276142 7.90825 0L 8.90825 0ZM 7.90825 0C 7.90825 4.68787 4.43684 8.55391 -0.0691438 9.18308L 0.0691438 10.1735C 5.06184 9.47635 8.90825 5.19411 8.90825 0L 7.90825 0ZM -0.0691438 10.1735C 4.4368 10.8026 7.90825 14.6694 7.90825 19.3573L 8.90825 19.3573C 8.90825 14.1632 5.06189 9.88021 0.0691438 9.18308L -0.0691438 10.1735ZM 8.90825 19.3573C 8.90825 14.6694 12.3797 10.8026 16.8857 10.1735L 16.7474 9.18308C 11.7546 9.88021 7.90825 14.1632 7.90825 19.3573L 8.90825 19.3573ZM 16.8857 9.18308C 12.3797 8.55391 8.90825 4.68787 8.90825 0L 7.90825 0C 7.90825 5.19411 11.7547 9.47635 16.7474 10.1735L 16.8857 9.18308Z"/>
<path id="path15_fill" fill-rule="evenodd" d="M 3.528 0C 3.528 2.07297 1.99291 3.7825 0 4.06095C 1.99291 4.33866 3.528 6.04819 3.528 8.12116C 3.528 6.04819 5.06309 4.33866 7.056 4.06095C 5.06309 3.7825 3.528 2.07297 3.528 0Z"/>
<path id="path16_stroke" d="M 4.028 0C 4.028 -0.276142 3.80414 -0.5 3.528 -0.5C 3.25186 -0.5 3.028 -0.276142 3.028 0L 4.028 0ZM 0 4.06095L -0.0691876 3.56576C -0.316232 3.60028 -0.500045 3.81159 -0.5 4.06104C -0.499955 4.31048 -0.316066 4.52174 -0.069009 4.55616L 0 4.06095ZM 3.028 8.12116C 3.028 8.39731 3.25186 8.62116 3.528 8.62116C 3.80414 8.62116 4.028 8.39731 4.028 8.12116L 3.028 8.12116ZM 7.056 4.06095L 7.12501 4.55616C 7.37207 4.52174 7.55596 4.31048 7.556 4.06104C 7.55605 3.81159 7.37223 3.60028 7.12519 3.56576L 7.056 4.06095ZM 4.028 0C 4.028 -0.276142 3.80414 -0.5 3.528 -0.5C 3.25186 -0.5 3.028 -0.276142 3.028 0L 4.028 0ZM 3.028 0C 3.028 1.81986 1.6804 3.32131 -0.0691876 3.56576L 0.0691876 4.55614C 2.30542 4.24369 4.028 2.32609 4.028 0L 3.028 0ZM -0.069009 4.55616C 1.6804 4.79995 3.028 6.30127 3.028 8.12116L 4.028 8.12116C 4.028 5.7951 2.30542 3.87738 0.069009 3.56573L -0.069009 4.55616ZM 4.028 8.12116C 4.028 6.30127 5.3756 4.79995 7.12501 4.55616L 6.98699 3.56573C 4.75058 3.87738 3.028 5.7951 3.028 8.12116L 4.028 8.12116ZM 7.12519 3.56576C 5.3756 3.32131 4.028 1.81986 4.028 0L 3.028 0C 3.028 2.32609 4.75058 4.24369 6.98681 4.55614L 7.12519 3.56576Z"/>
</defs>
</svg>
