<svg width="70" height="69" viewBox="0 0 70 69" version="1.1" xmlns="http://www.w3.org/2000/svg" xmlns:xlink="http://www.w3.org/1999/xlink">
<title>Illustration</title>
<desc>Created using Figma</desc>
<g id="Canvas" transform="translate(-6420 -618)">
<g id="Illustration">
<g id="Group">
<g id="Group">
<g id="Shape">
<use xlink:href="#path0_fill" transform="translate(6421.11 619.492)" fill="#FFFFFF"/>
<use xlink:href="#path1_stroke" transform="translate(6421.11 619.492)" fill="#DEDEE2"/>
</g>
</g>
<g id="Shape">
<use xlink:href="#path2_fill" transform="translate(6444.83 642.669)" fill="#E2E2E2"/>
</g>
<g id="Shape">
<use xlink:href="#path3_fill" transform="translate(6434.77 629.166)" fill="#F2F2F3"/>
<use xlink:href="#path4_stroke" transform="translate(6434.77 629.166)" fill="#DEDEE2"/>
</g>
<g id="Group">
<g id="Shape">
<use xlink:href="#path5_fill" transform="translate(6452.33 624.329)" fill="#D5D6D8"/>
</g>
<g id="Oval">
<use xlink:href="#path6_fill" transform="translate(6433.64 631.685)" fill="#D5D6D8"/>
</g>
<g id="Shape">
<use xlink:href="#path7_fill" transform="translate(6452.33 675.722)" fill="#D5D6D8"/>
</g>
<g id="Shape">
<use xlink:href="#path8_fill" transform="translate(6433.87 668.189)" fill="#D5D6D8"/>
</g>
<g id="Oval">
<use xlink:href="#path6_fill" transform="translate(6426.14 650.025)" fill="#D5D6D8"/>
</g>
</g>
<g id="Shape">
<use xlink:href="#path9_fill" transform="translate(6471.04 668.391)" fill="#C3C3C8"/>
</g>
<g id="Shape">
<use xlink:href="#path10_fill" transform="translate(6452.33 650.025)" fill="#C3C3C8"/>
<use xlink:href="#path11_stroke" transform="translate(6452.33 650.025)" fill="#C3C3C8"/>
</g>
</g>
</g>
</g>
<defs>
<path id="path0_fill" fill-rule="evenodd" d="M 33.6835 52.6015C 28.138 52.6015 23.2088 50.3846 19.6145 46.8577C 16.0202 43.3308 13.7609 38.3931 13.7609 33.0523C 13.7609 31.2385 13.9663 29.5254 14.4798 27.9131C 16.7391 19.5492 24.4411 13.4023 33.6835 13.4023C 39.229 13.4023 44.1582 15.6192 47.7525 19.1462L 57.4057 9.67385C 51.3468 3.62769 42.9259 0 33.6835 0C 20.7441 0 9.5505 7.05385 3.90236 17.5338C 1.43771 22.1692 0 27.4092 0 32.9515C 0 42.0208 3.79966 50.2838 9.85859 56.33C 15.9175 62.2754 24.3384 66.0038 33.6835 66.0038C 39.3316 66.0038 44.6717 64.5931 49.3956 62.1746L 38.9209 51.8962C 37.2778 52.2992 35.4293 52.6015 33.6835 52.6015Z"/>
<path id="path1_stroke" d="M 14.4798 27.9131L 15.4326 28.2165L 15.4394 28.1953L 15.4452 28.1739L 14.4798 27.9131ZM 47.7525 19.1462L 47.0521 19.8599L 47.7525 20.5472L 48.4529 19.8599L 47.7525 19.1462ZM 57.4057 9.67385L 58.1061 10.3876L 58.8274 9.67982L 58.1121 8.96599L 57.4057 9.67385ZM 3.90236 17.5338L 3.02205 17.0594L 3.01941 17.0644L 3.90236 17.5338ZM 9.85859 56.33L 9.1522 57.0379L 9.1582 57.0438L 9.85859 56.33ZM 49.3956 62.1746L 49.8513 63.0647L 51.0862 62.4325L 50.096 61.4608L 49.3956 62.1746ZM 38.9209 51.8962L 39.6213 51.1824L 39.2236 50.7922L 38.6826 50.9249L 38.9209 51.8962ZM 33.6835 51.6015C 28.4126 51.6015 23.7314 49.4964 20.3149 46.1439L 18.9141 47.5715C 22.6862 51.2728 27.8635 53.6015 33.6835 53.6015L 33.6835 51.6015ZM 20.3149 46.1439C 16.9007 42.7937 14.7609 38.1088 14.7609 33.0523L 12.7609 33.0523C 12.7609 38.6774 15.1397 43.8678 18.9141 47.5715L 20.3149 46.1439ZM 14.7609 33.0523C 14.7592 31.2981 14.9436 29.7376 15.4326 28.2165L 13.527 27.6096C 12.9891 29.3132 12.7627 31.1788 12.7609 33.0523L 14.7609 33.0523ZM 15.4452 28.1739C 17.5872 20.2441 24.8951 14.4023 33.6835 14.4023L 33.6835 12.4023C 23.987 12.4023 15.8909 18.8543 13.5144 27.6523L 15.4452 28.1739ZM 33.6835 14.4023C 38.9544 14.4023 43.6357 16.5075 47.0521 19.8599L 48.4529 18.4324C 44.6808 14.731 39.5035 12.4023 33.6835 12.4023L 33.6835 14.4023ZM 48.4529 19.8599L 58.1061 10.3876L 56.7053 8.96008L 47.0521 18.4324L 48.4529 19.8599ZM 58.1121 8.96599C 51.8659 2.73296 43.1911 -1 33.6835 -1L 33.6835 1C 42.6608 1 50.8277 4.52243 56.6994 10.3817L 58.1121 8.96599ZM 33.6835 -1C 20.3729 -1 8.84304 6.25875 3.02206 17.0594L 4.78265 18.0083C 10.258 7.84895 21.1153 1 33.6835 1L 33.6835 -1ZM 3.01941 17.0644C 0.508392 21.7999 -0.99105 27.2757 -1 32.9515L 1 32.9515C 0.99105 27.5427 2.36703 22.5385 4.78531 18.0033L 3.01941 17.0644ZM -1 32.9515C -1 42.3066 2.92014 50.8189 9.15223 57.0379L 10.5649 55.6222C 4.67919 49.7488 1 41.7349 1 32.9515L -1 32.9515ZM 9.1582 57.0438C 15.3979 63.1666 24.068 67.0038 33.6835 67.0038L 33.6835 65.0038C 24.6088 65.0038 16.4371 61.3842 10.559 55.6162L 9.1582 57.0438ZM 33.6835 67.0038C 39.4604 66.9955 45.0293 65.5269 49.8513 63.0647L 48.9399 61.2845C 44.3141 63.6592 39.2029 65.0122 33.6835 65.0038L 33.6835 67.0038ZM 50.096 61.4608L 39.6213 51.1824L 38.2205 52.6099L 48.6952 62.8884L 50.096 61.4608ZM 38.6826 50.9249C 37.0778 51.3194 35.3483 51.6048 33.6835 51.6015L 33.6835 53.6015C 35.5103 53.5983 37.4778 53.279 39.1591 52.8674L 38.6826 50.9249Z"/>
<path id="path2_fill" fill-rule="evenodd" d="M 29.7811 7.35615L 19.6145 7.35615C 19.2037 5.64308 18.2795 4.13154 17.0471 2.92231C 15.1987 1.10846 12.734 0 9.96128 0C 4.51852 0 0 4.33308 0 9.77462C 0 12.4954 1.12963 14.9138 2.87542 16.6269L 15.096 28.6185C 22.798 26.6031 28.6515 20.0531 29.6785 12.0923C 29.7811 11.2862 29.7811 10.48 29.7811 9.67385C 29.8838 8.96846 29.8838 8.16231 29.7811 7.35615Z"/>
<path id="path3_fill" fill-rule="evenodd" d="M 43.8502 0L 34.0943 9.47231C 30.5 5.94538 25.468 3.72846 20.0253 3.72846C 10.7828 3.72846 3.08081 9.87539 0.718855 18.2392C 0.308081 19.8515 0 21.5646 0 23.3785C 0 28.82 2.25926 33.6569 5.85354 37.1838C 9.44781 40.7108 14.4798 42.9277 19.9226 42.9277C 21.771 42.9277 23.5168 42.7262 25.1599 42.2223L 13.0421 30.2308C 11.2963 28.5177 10.1667 25.9985 10.1667 23.3785C 10.1667 18.0377 14.5825 13.6038 20.1279 13.6038C 22.9007 13.6038 25.3653 14.7123 27.1111 16.4254C 28.3434 17.6346 29.2677 19.1462 29.6785 20.8592L 39.8451 20.8592C 39.9478 21.6654 39.9478 22.4715 39.9478 23.2777C 39.9478 24.0838 39.8451 24.89 39.8451 25.6962C 38.8182 33.6569 32.9646 40.1062 25.2626 42.2223L 35.7374 52.5008C 46.4175 46.9585 53.7088 35.9746 53.7088 23.2777C 53.7088 14.2085 49.9091 5.94538 43.8502 0Z"/>
<path id="path4_stroke" d="M 34.0943 9.47231L 33.3939 10.1861L 34.0906 10.8697L 34.7909 10.1898L 34.0943 9.47231ZM 0.718855 18.2392L -0.243507 17.9675L -0.247008 17.9799L -0.250189 17.9923L 0.718855 18.2392ZM 25.1599 42.2223L 25.4531 43.1784L 27.0522 42.688L 25.8633 41.5115L 25.1599 42.2223ZM 27.1111 16.4254L 26.4107 17.1391L 27.1111 16.4254ZM 29.6785 20.8592L 28.706 21.0924L 28.8899 21.8592L 29.6785 21.8592L 29.6785 20.8592ZM 39.8451 20.8592L 40.8371 20.7329L 40.7258 19.8592L 39.8451 19.8592L 39.8451 20.8592ZM 39.8451 25.6962L 40.8369 25.8241L 40.8451 25.7604L 40.8451 25.6962L 39.8451 25.6962ZM 25.2626 42.2223L 24.9977 41.258L 23.3215 41.7186L 24.5622 42.9361L 25.2626 42.2223ZM 35.7374 52.5008L 35.037 53.2145L 35.5545 53.7223L 36.198 53.3884L 35.7374 52.5008ZM 53.7088 23.2777L 54.7088 23.2777L 53.7088 23.2777ZM 43.1536 -0.717457L 33.3977 8.75485L 34.7909 10.1898L 44.5468 0.717457L 43.1536 -0.717457ZM 34.7947 8.75855C 31.0206 5.05519 25.7398 2.72846 20.0253 2.72846L 20.0253 4.72846C 25.1962 4.72846 29.9794 6.83558 33.3939 10.1861L 34.7947 8.75855ZM 20.0253 2.72846C 10.3266 2.72846 2.23774 9.18118 -0.243507 17.9675L 1.68122 18.511C 3.92387 10.5696 11.239 4.72846 20.0253 4.72846L 20.0253 2.72846ZM -0.250189 17.9923C -0.669172 19.6395 -0.996045 21.4758 -1 23.3785L 1 23.3785C 0.996045 21.6535 1.28533 20.0636 1.6879 18.4861L -0.250189 17.9923ZM -1 23.3785C -1 29.1071 1.38089 34.196 5.15315 37.8976L 6.55392 36.4701C 3.13763 33.1178 1 28.5329 1 23.3785L -1 23.3785ZM 5.15315 37.8976C 8.92722 41.601 14.208 43.9277 19.9226 43.9277L 19.9226 41.9277C 14.7516 41.9277 9.9684 39.8206 6.55392 36.4701L 5.15315 37.8976ZM 19.9226 43.9277C 21.8285 43.926 23.7216 43.705 25.4531 43.1784L 24.8668 41.2663C 23.3121 41.7473 21.7136 41.9293 19.9226 41.9277L 19.9226 43.9277ZM 25.8633 41.5115L 13.7455 29.52L 12.3387 30.9416L 24.4565 42.9331L 25.8633 41.5115ZM 13.7425 29.517C 12.1816 27.9854 11.1667 25.7207 11.1667 23.3785L 9.16667 23.3785C 9.16667 26.2762 10.411 29.05 12.3417 30.9445L 13.7425 29.517ZM 11.1667 23.3785C 11.1667 18.6011 15.1236 14.6038 20.1279 14.6038L 20.1279 12.6038C 14.0414 12.6038 9.16667 17.4743 9.16667 23.3785L 11.1667 23.3785ZM 20.1279 14.6038C 22.6298 14.6038 24.8454 15.6032 26.4107 17.1391L 27.8115 15.7116C 25.8852 13.8214 23.1715 12.6038 20.1279 12.6038L 20.1279 14.6038ZM 26.4107 17.1391C 27.5607 18.257 28.3436 19.5283 28.706 21.0924L 30.6509 20.6261C 30.1918 18.764 29.1261 17.0122 27.8115 15.7116L 26.4107 17.1391ZM 29.6785 21.8592L 39.8451 21.8592L 39.8451 19.8592L 29.6785 19.8592L 29.6785 21.8592ZM 38.8531 20.9856C 38.9498 21.7287 38.9478 22.4715 38.9478 23.2777L 40.9478 23.2777C 40.9478 22.4715 40.9458 21.6021 40.8371 20.7329L 38.8531 20.9856ZM 38.9478 23.2777C 38.9498 24.0205 38.8471 24.8267 38.8451 25.6962L 40.8451 25.6962C 40.8431 24.9533 40.9458 24.1472 40.9478 23.2777L 38.9478 23.2777ZM 38.8533 25.5682C 37.8803 33.1111 32.3289 39.2438 24.9977 41.258L 25.5276 43.1866C 33.6004 40.9685 39.7561 34.2028 40.8369 25.8241L 38.8533 25.5682ZM 24.5622 42.9361L 35.037 53.2145L 36.4378 51.787L 25.963 41.5085L 24.5622 42.9361ZM 36.198 53.3884C 47.1886 47.6849 54.7088 36.371 54.7088 23.2777L 52.7088 23.2777C 52.7088 35.5783 45.6464 46.232 35.2768 51.6132L 36.198 53.3884ZM 54.7088 23.2777C 54.7088 13.9239 50.7894 5.40815 44.5506 -0.713763L 43.1498 0.713763C 49.0288 6.48262 52.7088 14.493 52.7088 23.2777L 54.7088 23.2777Z"/>
<path id="path5_fill" fill-rule="evenodd" d="M 2.46465 4.83692C 3.79966 4.83692 4.92929 3.72846 4.92929 2.41846C 4.92929 1.10846 3.79966 0 2.46465 0C 1.12963 0 0 1.10846 0 2.41846C 0 3.82923 1.12963 4.83692 2.46465 4.83692Z"/>
<path id="path6_fill" fill-rule="evenodd" d="M 2.46465 4.83692C 3.82583 4.83692 4.92929 3.75414 4.92929 2.41846C 4.92929 1.08278 3.82583 0 2.46465 0C 1.10346 0 0 1.08278 0 2.41846C 0 3.75414 1.10346 4.83692 2.46465 4.83692Z"/>
<path id="path7_fill" fill-rule="evenodd" d="M 2.46465 0C 1.12963 0 0 1.10846 0 2.41846C 0 3.72846 1.12963 4.83692 2.46465 4.83692C 3.79966 4.83692 4.92929 3.72846 4.92929 2.41846C 4.92929 1.10846 3.79966 0 2.46465 0Z"/>
<path id="path8_fill" fill-rule="evenodd" d="M 4.18476 0.680192C 3.26052 -0.226731 1.72012 -0.226731 0.693182 0.680192C -0.231061 1.58712 -0.231061 3.09865 0.693182 4.10635C 1.61742 5.01327 3.15783 5.01327 4.18476 4.10635C 5.10901 3.19942 5.10901 1.68788 4.18476 0.680192Z"/>
<path id="path9_fill" fill-rule="evenodd" d="M 0.693182 0.680192C -0.231061 1.58712 -0.231061 3.09865 0.693182 4.10635C 1.61742 5.01327 3.15783 5.01327 4.18476 4.10635C 5.10901 3.19942 5.10901 1.58712 4.18476 0.680192C 3.26052 -0.226731 1.72012 -0.226731 0.693182 0.680192Z"/>
<path id="path10_fill" fill-rule="evenodd" d="M 28.6515 0L 22.2845 0L 12.1178 0L 4.92929 0L 2.46465 0C 1.12963 0 0 1.10846 0 2.41846C 0 3.12385 0.308081 3.72846 0.718855 4.13154C 1.12963 4.53462 1.74579 4.83692 2.46465 4.83692L 12.1178 4.83692L 22.2845 4.83692L 28.6515 4.83692C 29.9865 4.83692 31.1162 3.72846 31.1162 2.41846C 31.1162 1.10846 29.9865 0 28.6515 0Z"/>
<path id="path11_stroke" d="M 31.1162 2.41846L 32.1162 2.41846L 31.1162 2.41846ZM 28.6515 -1L 22.2845 -1L 22.2845 1L 28.6515 1L 28.6515 -1ZM 22.2845 -1L 12.1178 -1L 12.1178 1L 22.2845 1L 22.2845 -1ZM 12.1178 -1L 4.92929 -1L 4.92929 1L 12.1178 1L 12.1178 -1ZM 4.92929 -1L 2.46465 -1L 2.46465 1L 4.92929 1L 4.92929 -1ZM 2.46465 -1C 0.595263 -1 -1 0.538428 -1 2.41846L 1 2.41846C 1 1.6785 1.664 1 2.46465 1L 2.46465 -1ZM -1 2.41846C -1 3.4201 -0.563182 4.27455 0.0184676 4.8453L 1.41924 3.41778C 1.17934 3.18237 1 2.82759 1 2.41846L -1 2.41846ZM 0.0184676 4.8453C 0.600198 5.41613 1.46225 5.83692 2.46465 5.83692L 2.46465 3.83692C 2.02934 3.83692 1.65906 3.6531 1.41924 3.41778L 0.0184676 4.8453ZM 2.46465 5.83692L 12.1178 5.83692L 12.1178 3.83692L 2.46465 3.83692L 2.46465 5.83692ZM 12.1178 5.83692L 22.2845 5.83692L 22.2845 3.83692L 12.1178 3.83692L 12.1178 5.83692ZM 22.2845 5.83692L 28.6515 5.83692L 28.6515 3.83692L 22.2845 3.83692L 22.2845 5.83692ZM 28.6515 5.83692C 30.5209 5.83692 32.1162 4.29849 32.1162 2.41846L 30.1162 2.41846C 30.1162 3.15843 29.4522 3.83692 28.6515 3.83692L 28.6515 5.83692ZM 32.1162 2.41846C 32.1162 0.538428 30.5209 -1 28.6515 -1L 28.6515 1C 29.4522 1 30.1162 1.6785 30.1162 2.41846L 32.1162 2.41846Z"/>
</defs>
</svg>
