<svg width="65" height="66" viewBox="0 0 65 66" version="1.1" xmlns="http://www.w3.org/2000/svg" xmlns:xlink="http://www.w3.org/1999/xlink">
<title>Illustration</title>
<desc>Created using Figma</desc>
<g id="Canvas" transform="translate(-6414 -254)">
<g id="Illustration">
<g id="Fill 1">
<use xlink:href="#path0_fill" transform="translate(6415.02 255.463)" fill="#DEDEE2"/>
</g>
<g id="Stroke 3">
<use xlink:href="#path1_stroke" transform="translate(6415.02 255.463)" fill="#DEDEE2"/>
</g>
<g id="Fill 5">
<use xlink:href="#path2_fill" transform="translate(6415.02 278.673)" fill="#DEDEE2"/>
</g>
<g id="Stroke 7">
<use xlink:href="#path3_stroke" transform="translate(6415.02 278.673)" fill="#DEDEE2"/>
</g>
<g id="Fill 9">
<use xlink:href="#path4_fill" transform="translate(6420.1 258.775)" fill="#FFFFFF"/>
</g>
<g id="Stroke 11">
<use xlink:href="#path5_stroke" transform="translate(6420.1 258.775)" fill="#DEDEE2"/>
</g>
<g id="Stroke 13">
<use xlink:href="#path6_stroke" transform="translate(6428.91 266.056)" fill="#DEDEE2"/>
</g>
<g id="Stroke 15">
<use xlink:href="#path6_stroke" transform="translate(6428.91 269.431)" fill="#DEDEE2"/>
</g>
<g id="Stroke 17">
<use xlink:href="#path6_stroke" transform="translate(6428.91 272.805)" fill="#DEDEE2"/>
</g>
<g id="Stroke 19">
<use xlink:href="#path6_stroke" transform="translate(6428.91 276.18)" fill="#DEDEE2"/>
</g>
<g id="Stroke 21">
<use xlink:href="#path6_stroke" transform="translate(6428.91 279.555)" fill="#DEDEE2"/>
</g>
<g id="Stroke 23">
<use xlink:href="#path6_stroke" transform="translate(6428.91 282.93)" fill="#DEDEE2"/>
</g>
<g id="Stroke 25">
<use xlink:href="#path7_stroke" transform="translate(6428.91 286.304)" fill="#DEDEE2"/>
</g>
<g id="Fill 27">
<use xlink:href="#path8_fill" transform="translate(6415.04 278.777)" fill="#F2F2F3"/>
</g>
<g id="Stroke 29">
<use xlink:href="#path9_stroke" transform="translate(6415.04 278.777)" fill="#DEDEE2"/>
</g>
<g id="Fill 31">
<use xlink:href="#path10_fill" transform="translate(6415 278.76)" fill="#FFFFFF"/>
</g>
<g id="Stroke 33">
<use xlink:href="#path11_stroke" transform="translate(6415 278.76)" fill="#DEDEE2"/>
</g>
<g id="Fill 35">
<use xlink:href="#path12_fill" transform="translate(6477.54 278.76)" fill="#FFFFFF"/>
</g>
<g id="Stroke 37">
<use xlink:href="#path13_stroke" transform="translate(6477.54 278.76)" fill="#DEDEE2"/>
</g>
<g id="Stroke 39">
<use xlink:href="#path14_stroke" transform="translate(6455.09 296.371)" fill="#DEDEE2"/>
</g>
<g id="Stroke 41">
<use xlink:href="#path15_stroke" transform="translate(6416.07 296.506)" fill="#DEDEE2"/>
</g>
</g>
</g>
<defs>
<path id="path0_fill" fill-rule="evenodd" d="M 0 23.2751L 0 23.2918L 62.519 23.2918L 62.519 23.2584L 33.3725 0.719304C 32.1323 -0.239768 30.4078 -0.239768 29.1681 0.719304L 0 23.2751Z"/>
<path id="path1_stroke" d="M 0 23.2918L -1 23.2918C -1 23.8441 -0.552285 24.2918 2.22045e-16 24.2918L 0 23.2918ZM 62.519 23.2918L 62.519 24.2918C 63.0713 24.2918 63.519 23.8441 63.519 23.2918L 62.519 23.2918ZM 62.519 23.2584L 63.519 23.2584C 63.519 22.9489 63.3756 22.6567 63.1307 22.4674L 62.519 23.2584ZM 33.3725 0.719304L 33.9843 -0.0717592L 33.9843 -0.0717597L 33.3725 0.719304ZM 29.1681 0.719304L 29.7798 1.51037L 29.78 1.51026L 29.1681 0.719304ZM -1 23.2751L -1 23.2918L 1 23.2918L 1 23.2751L -1 23.2751ZM 0 24.2918L 62.519 24.2918L 62.519 22.2918L 0 22.2918L 0 24.2918ZM 63.519 23.2918L 63.519 23.2584L 61.519 23.2584L 61.519 23.2918L 63.519 23.2918ZM 63.1307 22.4674L 33.9843 -0.0717592L 32.7608 1.51037L 61.9073 24.0495L 63.1307 22.4674ZM 33.9843 -0.0717597C 32.3839 -1.30936 30.1563 -1.3095 28.5562 -0.0716499L 29.78 1.51026C 30.6594 0.829965 31.8807 0.829826 32.7608 1.51037L 33.9843 -0.0717597ZM 28.5563 -0.0717594L -0.611734 22.4841L 0.611734 24.0662L 29.7798 1.51037L 28.5563 -0.0717594Z"/>
<path id="path2_fill" fill-rule="evenodd" d="M 62.4969 0.0166957L 62.4969 0L 0 0L 0 0.0333913L 31.2379 24.198L 62.4969 0.0166957Z"/>
<path id="path3_stroke" d="M 62.4969 0L 63.4969 0C 63.4969 -0.552285 63.0492 -1 62.4969 -1L 62.4969 0ZM 0 0L 0 -1C -0.552285 -1 -1 -0.552285 -1 2.22045e-16L 0 0ZM 0 0.0333913L -1 0.0333913C -1 0.342905 -0.856678 0.634974 -0.611864 0.824354L 0 0.0333913ZM 31.2379 24.198L 30.626 24.989C 30.9863 25.2677 31.4895 25.2677 31.8498 24.989L 31.2379 24.198ZM 63.4969 0.0166957L 63.4969 0L 61.4969 0L 61.4969 0.0166957L 63.4969 0.0166957ZM 62.4969 -1L 0 -1L 0 1L 62.4969 1L 62.4969 -1ZM -1 0L -1 0.0333913L 1 0.0333913L 1 0L -1 0ZM -0.611864 0.824354L 30.626 24.989L 31.8497 23.4071L 0.611864 -0.757572L -0.611864 0.824354ZM 31.8498 24.989L 63.1088 0.807655L 61.8851 -0.774263L 30.626 23.4071L 31.8498 24.989Z"/>
<path id="path4_fill" fill-rule="evenodd" d="M 49.707 44.4781L 2.68049 44.4781C 1.19976 44.4781 0 43.2677 0 41.7748L 0 2.7033C 0 1.21043 1.19976 0 2.68049 0L 49.707 0C 51.1873 0 52.3875 1.21043 52.3875 2.7033L 52.3875 41.7748C 52.3875 43.2677 51.1873 44.4781 49.707 44.4781Z"/>
<path id="path5_stroke" d="M 49.707 43.4781C 49.1547 43.4781 48.707 43.9259 48.707 44.4781C 48.707 45.0304 49.1547 45.4781 49.707 45.4781L 49.707 43.4781ZM 49.707 43.4781L 2.68049 43.4781L 2.68049 45.4781L 49.707 45.4781L 49.707 43.4781ZM 2.68049 43.4781C 1.76013 43.4781 1 42.7235 1 41.7748L -1 41.7748C -1 43.8119 0.639389 45.4781 2.68049 45.4781L 2.68049 43.4781ZM 1 41.7748L 1 2.7033L -1 2.7033L -1 41.7748L 1 41.7748ZM 1 2.7033C 1 1.7546 1.76013 1 2.68049 1L 2.68049 -1C 0.639389 -1 -1 0.66627 -1 2.7033L 1 2.7033ZM 2.68049 1L 49.707 1L 49.707 -1L 2.68049 -1L 2.68049 1ZM 49.707 1C 50.627 1 51.3875 1.75471 51.3875 2.7033L 53.3875 2.7033C 53.3875 0.666158 51.7475 -1 49.707 -1L 49.707 1ZM 51.3875 2.7033L 51.3875 41.7748L 53.3875 41.7748L 53.3875 2.7033L 51.3875 2.7033ZM 51.3875 41.7748C 51.3875 42.7234 50.627 43.4781 49.707 43.4781L 49.707 45.4781C 51.7475 45.4781 53.3875 43.812 53.3875 41.7748L 51.3875 41.7748Z"/>
<path id="path6_stroke" d="M 0 -1C -0.552285 -1 -1 -0.552285 -1 0C -1 0.552285 -0.552285 1 0 1L 0 -1ZM 35.6911 1C 36.2434 1 36.6911 0.552285 36.6911 0C 36.6911 -0.552285 36.2434 -1 35.6911 -1L 35.6911 1ZM 0 1L 35.6911 1L 35.6911 -1L 0 -1L 0 1Z"/>
<path id="path7_stroke" d="M 0 -1C -0.552285 -1 -1 -0.552285 -1 0C -1 0.552285 -0.552285 1 0 1L 0 -1ZM 19.1446 1C 19.6969 1 20.1446 0.552285 20.1446 0C 20.1446 -0.552285 19.6969 -1 19.1446 -1L 19.1446 1ZM 0 1L 19.1446 1L 19.1446 -1L 0 -1L 0 1Z"/>
<path id="path8_fill" fill-rule="evenodd" d="M 29.7392 23.0219L 0 0.0162319L 0 36.7174C 0 38.6467 1.55109 40.211 3.46408 40.211L 59.0328 40.211C 60.9458 40.211 62.4969 38.6467 62.4969 36.7174L 62.4969 0L 32.7361 23.0219C 31.8522 23.706 30.6231 23.706 29.7392 23.0219Z"/>
<path id="path9_stroke" d="M 0 0.0162319L 0.61187 -0.774726C 0.31015 -1.00813 -0.0980757 -1.04955 -0.440528 -0.881507C -0.782981 -0.713463 -1 -0.365229 -1 0.0162319L 0 0.0162319ZM 62.4969 0L 63.4969 0C 63.4969 -0.381459 63.2799 -0.729691 62.9375 -0.897737C 62.595 -1.06578 62.1868 -1.02436 61.8851 -0.790965L 62.4969 0ZM 32.7361 23.0219L 32.1242 22.2309L 32.124 22.2311L 32.7361 23.0219ZM 30.3511 22.231L 0.61187 -0.774726L -0.61187 0.80719L 29.1273 23.8129L 30.3511 22.231ZM -1 0.0162319L -1 36.7174L 1 36.7174L 1 0.0162319L -1 0.0162319ZM -1 36.7174C -1 39.191 0.990829 41.211 3.46408 41.211L 3.46408 39.211C 2.11135 39.211 1 38.1024 1 36.7174L -1 36.7174ZM 3.46408 41.211L 59.0328 41.211L 59.0328 39.211L 3.46408 39.211L 3.46408 41.211ZM 59.0328 41.211C 61.5061 41.211 63.4969 39.191 63.4969 36.7174L 61.4969 36.7174C 61.4969 38.1024 60.3856 39.211 59.0328 39.211L 59.0328 41.211ZM 63.4969 36.7174L 63.4969 0L 61.4969 0L 61.4969 36.7174L 63.4969 36.7174ZM 61.8851 -0.790965L 32.1242 22.2309L 33.3479 23.8129L 63.1088 0.790965L 61.8851 -0.790965ZM 32.124 22.2311C 31.6006 22.6362 30.8747 22.6362 30.3513 22.2311L 29.1272 23.8127C 30.3714 24.7757 32.1039 24.7757 33.3481 23.8127L 32.124 22.2311Z"/>
<path id="path10_fill" fill-rule="evenodd" d="M 0 0L 0.0473431 0.0365217L 0.0473431 0L 0 0Z"/>
<path id="path11_stroke" d="M 0.0473431 0.0365217L -0.56346 0.828304C -0.261618 1.06115 0.146355 1.10213 0.488476 0.933963C 0.830597 0.765795 1.04734 0.41774 1.04734 0.0365217L 0.0473431 0.0365217ZM 0.0473431 0L 1.04734 0C 1.04734 -0.552285 0.599628 -1 0.0473431 -1L 0.0473431 0ZM 0 -1C -0.552285 -1 -1 -0.552285 -1 0C -1 0.552285 -0.552285 1 0 1L 0 -1ZM -0.610803 0.791783L -0.56346 0.828304L 0.658146 -0.755261L 0.610803 -0.791783L -0.610803 0.791783ZM 1.04734 0.0365217L 1.04734 0L -0.952657 0L -0.952657 0.0365217L 1.04734 0.0365217ZM 0.0473431 -1L 0 -1L 0 1L 0.0473431 1L 0.0473431 -1Z"/>
<path id="path12_fill" fill-rule="evenodd" d="M 0.0236715 0L 0 0L 0 0.0182609L 0.0236715 0Z"/>
<path id="path13_stroke" d="M 0 0L 0 -1C -0.552285 -1 -1 -0.552285 -1 2.22045e-16L 0 0ZM 0 0.0182609L -1 0.0182609C -1 0.399479 -0.783254 0.747535 -0.441133 0.915702C -0.0990124 1.08387 0.308961 1.04289 0.610803 0.810044L 0 0.0182609ZM 0.0236715 -1L 0 -1L 0 1L 0.0236715 1L 0.0236715 -1ZM -1 0L -1 0.0182609L 1 0.0182609L 1 0L -1 0ZM 0.610803 0.810044L 0.634474 0.791783L -0.587131 -0.791783L -0.610803 -0.773522L 0.610803 0.810044Z"/>
<path id="path14_stroke" d="M 20.7136 22.3101C 21.1024 22.7023 21.7356 22.705 22.1278 22.3161C 22.52 21.9273 22.5226 21.2941 22.1338 20.9019L 20.7136 22.3101ZM 0.710097 -0.704104C 0.321231 -1.09628 -0.311928 -1.09896 -0.704104 -0.710097C -1.09628 -0.321231 -1.09896 0.311928 -0.710097 0.704104L 0.710097 -0.704104ZM 22.1338 20.9019L 0.710097 -0.704104L -0.710097 0.704104L 20.7136 22.3101L 22.1338 20.9019Z"/>
<path id="path15_stroke" d="M -0.710097 20.7674C -1.09896 21.1596 -1.09628 21.7928 -0.704104 22.1816C -0.311928 22.5705 0.321231 22.5678 0.710097 22.1756L -0.710097 20.7674ZM 22.0004 0.704104C 22.3893 0.311928 22.3866 -0.321231 21.9944 -0.710097C 21.6022 -1.09896 20.9691 -1.09628 20.5802 -0.704104L 22.0004 0.704104ZM 0.710097 22.1756L 22.0004 0.704104L 20.5802 -0.704104L -0.710097 20.7674L 0.710097 22.1756Z"/>
</defs>
</svg>
