<svg width="56" height="91" viewBox="0 0 56 91" version="1.1" xmlns="http://www.w3.org/2000/svg" xmlns:xlink="http://www.w3.org/1999/xlink">
<title>Illustration</title>
<desc>Created using Figma</desc>
<g id="Canvas" transform="translate(-6424 -791)">
<g id="Illustration">
<g id="Fill 1">
<use xlink:href="#path0_fill" transform="translate(6425.06 826.331)" fill="#F2F2F3"/>
</g>
<g id="Oval 16">
<use xlink:href="#path1_fill" transform="translate(6464 828)" fill="#C3C3C8"/>
</g>
<g id="Stroke 3">
<use xlink:href="#path2_stroke" transform="translate(6425.06 826.331)" fill="#DEDEE2"/>
</g>
<g id="Fill 5">
<use xlink:href="#path3_fill" transform="matrix(0.97437 -0.224951 0.224951 0.97437 6426.03 801.95)" fill="#FFFFFF"/>
</g>
<g id="Stroke 7">
<use xlink:href="#path4_stroke" transform="matrix(0.97437 -0.224951 0.224951 0.97437 6426.03 801.95)" fill="#DEDEE2"/>
</g>
<g id="Fill 9">
<use xlink:href="#path5_fill" transform="translate(6425.06 832.56)" fill="#E6E7E8"/>
</g>
<g id="Stroke 11">
<use xlink:href="#path5_fill" transform="translate(6425.06 832.56)" fill="#FFFFFF"/>
<use xlink:href="#path6_stroke" transform="translate(6425.06 832.56)" fill="#DEDEE2"/>
</g>
<g id="Fill 13">
<use xlink:href="#path7_fill" transform="translate(6447.21 849.113)" fill="#C3C3C8"/>
</g>
<g id="Stroke 15">
<use xlink:href="#path8_stroke" transform="translate(6447.21 849.113)" fill="#DEDEE2"/>
</g>
</g>
</g>
<defs>
<path id="path0_fill" fill-rule="evenodd" d="M 44.3962 6.22827C 47.3023 6.22827 49.8935 7.58301 51.582 9.70049C 52.8479 11.2903 53.6075 13.308 53.6075 15.5031L 53.6075 9.277C 53.6075 4.99104 48.7377 0.330371 46.7981 0.330371L 40.2992 0L 13.3083 0L 13.3083 1.10198C 13.3083 2.90904 11.8531 3.52765 10.0588 3.52765C 8.26458 3.52765 6.80936 2.90904 6.80936 1.10198L 6.80936 0.330371C 4.52196 0.330371 0 4.99104 0 9.277L 0 15.5031C 0 13.5386 0.605423 11.7204 1.64015 10.2215C 3.30231 7.80696 6.07404 6.22827 9.20903 6.22827L 44.3962 6.22827Z"/>
<path id="path1_fill" fill-rule="evenodd" d="M 4 3C 6.20914 3 8 2.32843 8 1.5C 8 0.671573 6.20914 0 4 0C 1.79086 0 0 0.671573 0 1.5C 0 2.32843 1.79086 3 4 3Z"/>
<path id="path2_stroke" d="M 51.582 9.70049L 52.3643 9.07758L 52.3639 9.07702L 51.582 9.70049ZM 46.7981 0.330371L 46.3059 1.20085L 46.535 1.33037L 46.7981 1.33037L 46.7981 0.330371ZM 13.3083 0L 13.3083 -1L 12.3083 -1L 12.3083 0L 13.3083 0ZM 6.80936 0.330371L 7.80936 0.330371L 7.80936 -0.669629L 6.80936 -0.669629L 6.80936 0.330371ZM 1.64015 10.2215L 2.4631 10.7897L 2.46385 10.7886L 1.64015 10.2215ZM 44.3962 7.22827C 46.9836 7.22827 49.2922 8.43299 50.8002 10.324L 52.3639 9.07702C 50.4947 6.73304 47.6209 5.22827 44.3962 5.22827L 44.3962 7.22827ZM 50.7998 10.3234C 51.9783 11.7839 52.6236 13.487 52.6075 15.5031L 54.6075 15.5031C 54.5913 13.1289 53.7176 10.7966 52.3643 9.07758L 50.7998 10.3234ZM 54.6075 15.5031L 54.6075 9.277L 52.6075 9.277L 52.6075 15.5031L 54.6075 15.5031ZM 54.6075 9.277C 54.6075 6.79009 53.2187 4.3275 51.6889 2.54515C 50.9168 1.6485 50.031 0.845944 49.2488 0.302855C 48.4862 -0.224067 47.6036 -0.669629 46.7981 -0.669629L 46.7981 1.33037C 46.9624 1.33037 47.4159 1.46739 48.1119 1.94828C 48.7883 2.41301 49.4836 3.04349 50.1713 3.84775C 51.5613 5.46723 52.6075 7.47795 52.6075 9.277L 54.6075 9.277ZM 46.7981 0.330371C 47.2903 -0.540106 47.2885 -0.541142 47.2866 -0.542175C 47.286 -0.542518 47.2842 -0.543536 47.283 -0.544214C 47.2818 -0.544891 47.2781 -0.54688 47.2757 -0.548204C 47.2733 -0.549522 47.2662 -0.553325 47.2614 -0.55585C 47.2565 -0.558362 47.2428 -0.565328 47.2334 -0.569955C 47.2238 -0.574578 47.198 -0.586442 47.1795 -0.594404C 47.1597 -0.602658 47.1118 -0.620964 47.0732 -0.633972C 47.0251 -0.649513 46.9263 -0.676944 46.8203 -0.69982C 46.6493 -0.735506 46.3349 -0.785602 45.8595 -0.830492C 44.9531 -0.914823 43.2819 -0.999678 40.2992 -1L 40.2992 1C 43.2311 0.999678 44.8094 1.08001 45.6738 1.16086C 46.0838 1.19857 46.2851 1.23106 46.4085 1.25732C 46.4496 1.26542 46.4566 1.26885 46.4496 1.26632C 46.4607 1.2703 46.3923 1.24431 46.4007 1.24773C 46.4134 1.25327 46.352 1.22543 46.3591 1.2288C 46.3672 1.2328 46.3297 1.21392 46.3339 1.21611C 46.3384 1.21848 46.318 1.20759 46.3203 1.20883C 46.3226 1.21011 46.312 1.20427 46.3132 1.20493C 46.312 1.20426 46.3102 1.20325 46.3096 1.20291C 46.3077 1.20188 46.3059 1.20085 46.7981 0.330371ZM 40.2992 -1C 37.3418 -1 30.5941 -1 24.5857 -1C 21.5815 -1 18.7622 -1 16.6939 -1C 15.6597 -1 14.8133 -1 14.2255 -1C 13.9315 -1 13.7022 -1 13.5464 -1C 13.4685 -1 13.409 -1 13.3689 -1C 13.3489 -1 13.3338 -1 13.3236 -1C 13.3185 -1 13.3147 -1 13.3121 -1C 13.3109 -1 13.3099 -1 13.3093 -1C 13.3089 -1 13.3087 -1 13.3085 -1C 13.3084 -1 13.3083 -1 13.3083 0C 13.3083 1 13.3084 1 13.3085 1C 13.3087 1 13.3089 1 13.3093 1C 13.3099 1 13.3109 1 13.3121 1C 13.3147 1 13.3185 1 13.3236 1C 13.3338 1 13.3489 1 13.3689 1C 13.409 1 13.4685 1 13.5464 1C 13.7022 1 13.9315 1 14.2255 1C 14.8133 1 15.6597 1 16.6939 1C 18.7622 1 21.5815 1 24.5857 1C 30.5941 1 37.3418 1 40.2992 1L 40.2992 -1ZM 12.3083 0L 12.3083 1.10198L 14.3083 1.10198L 14.3083 0L 12.3083 0ZM 12.3083 1.10198C 12.3083 1.68671 12.0997 1.96746 11.8131 2.1529C 11.4579 2.3828 10.87 2.52765 10.0588 2.52765L 10.0588 4.52765C 11.0419 4.52765 12.0788 4.3632 12.8997 3.83203C 13.7893 3.2564 14.3083 2.32431 14.3083 1.10198L 12.3083 1.10198ZM 10.0588 2.52765C 9.24763 2.52765 8.6598 2.3828 8.30451 2.1529C 8.01793 1.96746 7.80936 1.68671 7.80936 1.10198L 5.80936 1.10198C 5.80936 2.32431 6.3284 3.2564 7.21799 3.83203C 8.03887 4.3632 9.07578 4.52765 10.0588 4.52765L 10.0588 2.52765ZM 7.80936 1.10198L 7.80936 0.330371L 5.80936 0.330371L 5.80936 1.10198L 7.80936 1.10198ZM 6.80936 -0.669629C 5.94076 -0.669629 5.02659 -0.24778 4.22045 0.297043C 3.41478 0.844887 2.53096 1.65636 1.77846 2.55654C 0.281063 4.3547 -1 6.81165 -1 9.277L 1 9.277C 1 7.45639 1.97992 5.44003 3.31535 3.83637C 3.97927 3.03563 4.65482 2.41406 5.34035 1.95409C 6.02541 1.49111 6.53426 1.33037 6.80936 1.33037L 6.80936 -0.669629ZM -1 9.277L -1 15.5031L 1 15.5031L 1 9.277L -1 9.277ZM 1 15.5031C 0.987112 13.6986 1.50022 12.1669 2.4631 10.7897L 0.817196 9.65344C -0.289371 11.2739 -0.987112 13.3785 -1 15.5031L 1 15.5031ZM 2.46385 10.7886C 3.94828 8.63217 6.41846 7.22827 9.20903 7.22827L 9.20903 5.22827C 5.72962 5.22827 2.65634 6.98175 0.816444 9.65453L 2.46385 10.7886ZM 9.20903 7.22827L 44.3962 7.22827L 44.3962 5.22827L 9.20903 5.22827L 9.20903 7.22827Z"/>
<path id="path3_fill" fill-rule="evenodd" d="M 3.24947 29.7888C 5.04372 29.7888 6.49894 29.1702 6.49894 27.3632L 6.49894 26.2612L 6.49894 20.1349C 6.49894 12.6406 12.551 6.54312 19.9922 6.54312C 27.4356 6.54312 33.4898 12.6406 33.4898 20.1349L 33.4898 26.2612L 33.4898 27.3632C 33.4898 29.1702 34.9428 29.7888 36.7371 29.7888C 38.5313 29.7888 39.9865 29.1702 39.9865 27.3632L 39.9865 26.5915L 39.9865 20.1349C 39.9865 9.0331 31.0175 0 19.9922 0C 8.96907 0 0 9.0331 0 20.1349L 0 26.5915L 0 27.3632C 0 29.1702 1.45522 29.7888 3.24947 29.7888Z"/>
<path id="path4_stroke" d="M 3.24947 30.7888C 4.23252 30.7888 5.26943 30.6244 6.09031 30.0932C 6.9799 29.5176 7.49894 28.5855 7.49894 27.3632L 5.49894 27.3632C 5.49894 27.9479 5.29037 28.2286 5.00379 28.4141C 4.6485 28.644 4.06067 28.7888 3.24947 28.7888L 3.24947 30.7888ZM 7.49894 27.3632L 7.49894 26.2612L 5.49894 26.2612L 5.49894 27.3632L 7.49894 27.3632ZM 7.49894 26.2612L 7.49894 20.1349L 5.49894 20.1349L 5.49894 26.2612L 7.49894 26.2612ZM 7.49894 20.1349C 7.49894 13.1859 13.1102 7.54312 19.9922 7.54312L 19.9922 5.54312C 11.9918 5.54312 5.49894 12.0952 5.49894 20.1349L 7.49894 20.1349ZM 19.9922 7.54312C 26.8767 7.54312 32.4898 13.1862 32.4898 20.1349L 34.4898 20.1349C 34.4898 12.0949 27.9944 5.54312 19.9922 5.54312L 19.9922 7.54312ZM 32.4898 20.1349L 32.4898 26.2612L 34.4898 26.2612L 34.4898 20.1349L 32.4898 20.1349ZM 32.4898 26.2612L 32.4898 27.3632L 34.4898 27.3632L 34.4898 26.2612L 32.4898 26.2612ZM 32.4898 27.3632C 32.4898 28.5849 33.0078 29.5171 33.897 30.093C 34.7175 30.6244 35.754 30.7888 36.7371 30.7888L 36.7371 28.7888C 35.9258 28.7888 35.3388 28.644 34.9842 28.4143C 34.6983 28.2292 34.4898 27.9485 34.4898 27.3632L 32.4898 27.3632ZM 36.7371 30.7888C 37.7201 30.7888 38.757 30.6244 39.5779 30.0932C 40.4675 29.5176 40.9865 28.5855 40.9865 27.3632L 38.9865 27.3632C 38.9865 27.9479 38.778 28.2286 38.4914 28.4141C 38.1361 28.644 37.5483 28.7888 36.7371 28.7888L 36.7371 30.7888ZM 40.9865 27.3632L 40.9865 26.5915L 38.9865 26.5915L 38.9865 27.3632L 40.9865 27.3632ZM 40.9865 26.5915L 40.9865 20.1349L 38.9865 20.1349L 38.9865 26.5915L 40.9865 26.5915ZM 40.9865 20.1349C 40.9865 8.48746 31.5764 -1 19.9922 -1L 19.9922 1C 30.4586 1 38.9865 9.57874 38.9865 20.1349L 40.9865 20.1349ZM 19.9922 -1C 8.41009 -1 -1 8.48753 -1 20.1349L 1 20.1349C 1 9.57867 9.52805 1 19.9922 1L 19.9922 -1ZM -1 20.1349L -1 26.5915L 1 26.5915L 1 20.1349L -1 20.1349ZM -1 26.5915L -1 27.3632L 1 27.3632L 1 26.5915L -1 26.5915ZM -1 27.3632C -1 28.5855 -0.48096 29.5176 0.408629 30.0932C 1.22951 30.6244 2.26642 30.7888 3.24947 30.7888L 3.24947 28.7888C 2.43827 28.7888 1.85044 28.644 1.49515 28.4141C 1.20857 28.2286 1 27.9479 1 27.3632L -1 27.3632Z"/>
<path id="path5_fill" fill-rule="evenodd" d="M 29.7956 24.7956L 29.7956 31.4651L 23.8118 31.4651L 23.8118 24.7956C 22.8057 23.9375 22.1519 22.6692 22.1519 21.2369C 22.1519 18.6493 24.2345 16.554 26.8037 16.554C 29.3729 16.554 31.4534 18.6493 31.4534 21.2369C 31.4534 22.6692 30.8017 23.9353 29.7956 24.7956ZM 53.6053 13.0707L 53.6053 9.27478C 53.6053 7.07748 52.8479 5.05978 51.582 3.47222C 49.8935 1.35253 47.3023 0 44.3962 0L 9.20903 0C 6.07404 0 3.30231 1.57869 1.63794 3.99106C 0.605423 5.48993 0 7.31029 0 9.27478L 0 14.472L 0 20.7003C 0 21.0573 0.0242169 21.4076 0.0638446 21.7535C 0.724306 36.0792 12.4321 47.4981 26.8191 47.4981C 41.6289 47.4981 53.6383 35.4051 53.6383 20.4874C 53.6383 20.075 53.6251 19.6826 53.6053 19.299L 53.6053 13.0707Z"/>
<path id="path6_stroke" d="M 29.7956 31.4651L 29.7956 32.4651L 30.7956 32.4651L 30.7956 31.4651L 29.7956 31.4651ZM 23.8118 31.4651L 22.8118 31.4651L 22.8118 32.4651L 23.8118 32.4651L 23.8118 31.4651ZM 23.8118 24.7956L 24.8118 24.7956L 24.8118 24.3341L 24.4607 24.0347L 23.8118 24.7956ZM 51.582 3.47222L 50.7999 4.0953L 50.8002 4.09567L 51.582 3.47222ZM 1.63794 3.99106L 0.814836 3.42318L 0.814429 3.42377L 1.63794 3.99106ZM 0.0638446 21.7535L 1.06278 21.7074L 1.06122 21.6735L 1.05735 21.6397L 0.0638446 21.7535ZM 53.6053 19.299L 52.6053 19.299L 52.6053 19.3248L 52.6066 19.3506L 53.6053 19.299ZM 28.7956 24.7956L 28.7956 31.4651L 30.7956 31.4651L 30.7956 24.7956L 28.7956 24.7956ZM 29.7956 30.4651L 23.8118 30.4651L 23.8118 32.4651L 29.7956 32.4651L 29.7956 30.4651ZM 24.8118 31.4651L 24.8118 24.7956L 22.8118 24.7956L 22.8118 31.4651L 24.8118 31.4651ZM 24.4607 24.0347C 23.6607 23.3524 23.1519 22.3552 23.1519 21.2369L 21.1519 21.2369C 21.1519 22.9832 21.9507 24.5225 23.1629 25.5564L 24.4607 24.0347ZM 23.1519 21.2369C 23.1519 19.1955 24.7929 17.554 26.8037 17.554L 26.8037 15.554C 23.6761 15.554 21.1519 18.1031 21.1519 21.2369L 23.1519 21.2369ZM 26.8037 17.554C 28.8139 17.554 30.4534 19.1949 30.4534 21.2369L 32.4534 21.2369C 32.4534 18.1038 29.9319 15.554 26.8037 15.554L 26.8037 17.554ZM 30.4534 21.2369C 30.4534 22.3556 29.9463 23.3509 29.1457 24.0355L 30.4455 25.5556C 31.6571 24.5196 32.4534 22.9829 32.4534 21.2369L 30.4534 21.2369ZM 54.6053 13.0707L 54.6053 9.27478L 52.6053 9.27478L 52.6053 13.0707L 54.6053 13.0707ZM 54.6053 9.27478C 54.5892 6.89891 53.7177 4.56628 52.3639 2.84878L 50.8002 4.09567C 51.9782 5.55327 52.6213 7.25605 52.6053 9.27478L 54.6053 9.27478ZM 52.3642 2.84914C 50.4946 0.502207 47.6205 -1 44.3962 -1L 44.3962 1C 46.984 1 49.2923 2.20285 50.7999 4.0953L 52.3642 2.84914ZM 44.3962 -1L 9.20903 -1L 9.20903 1L 44.3962 1L 44.3962 -1ZM 9.20903 -1C 5.7296 -1 2.65676 0.753442 0.814837 3.42318L 2.46105 4.55895C 3.94786 2.40393 6.41849 1 9.20903 1L 9.20903 -1ZM 0.814429 3.42377C -0.289675 5.04406 -0.987141 7.15044 -1 9.27478L 1 9.27478C 0.987141 7.47014 1.50052 5.93579 2.46146 4.55835L 0.814429 3.42377ZM -1 9.27478L -1 14.472L 1 14.472L 1 9.27478L -1 9.27478ZM -1 14.472L -1 20.7003L 1 20.7003L 1 14.472L -1 14.472ZM -1 20.7003C -0.999405 21.0918 -0.971596 21.499 -0.929657 21.8673L 1.05735 21.6397C 1.02003 21.3162 0.999405 21.0228 1 20.7003L -1 20.7003ZM -0.935094 21.7996C -0.250521 36.6482 11.887 48.4981 26.8191 48.4981L 26.8191 46.4981C 12.9772 46.4981 1.69913 35.5101 1.06278 21.7074L -0.935094 21.7996ZM 26.8191 48.4981C 42.1878 48.4981 54.6383 35.9508 54.6383 20.4874L 52.6383 20.4874C 52.6383 34.8595 41.07 46.4981 26.8191 46.4981L 26.8191 48.4981ZM 54.6383 20.4874C 54.6381 20.0582 54.6242 19.64 54.6039 19.2474L 52.6066 19.3506C 52.626 19.7252 52.6384 20.0919 52.6383 20.4874L 54.6383 20.4874ZM 54.6053 19.299L 54.6053 13.0707L 52.6053 13.0707L 52.6053 19.299L 54.6053 19.299Z"/>
<path id="path7_fill" fill-rule="evenodd" d="M 4.65185 0C 2.08266 0 0 2.09752 0 4.68506C 0 6.11741 0.653857 7.38346 1.65996 8.24154L 1.65996 14.911L 7.64374 14.911L 7.64374 8.24154C 8.64985 7.38346 9.3037 6.11741 9.3037 4.68506C 9.3037 2.09752 7.22105 0 4.65185 0Z"/>
<path id="path8_stroke" d="M 1.65996 8.24154L 2.65996 8.24154L 2.65996 7.78011L 2.30888 7.48068L 1.65996 8.24154ZM 1.65996 14.911L 0.65996 14.911L 0.65996 15.911L 1.65996 15.911L 1.65996 14.911ZM 7.64374 14.911L 7.64374 15.911L 8.64374 15.911L 8.64374 14.911L 7.64374 14.911ZM 7.64374 8.24154L 6.99482 7.48068L 6.64374 7.78011L 6.64374 8.24154L 7.64374 8.24154ZM 4.65185 -1C 1.52368 -1 -1 1.55196 -1 4.68506L 1 4.68506C 1 2.64309 2.64164 1 4.65185 1L 4.65185 -1ZM -1 4.68506C -1 6.43191 -0.20076 7.96889 1.01104 9.0024L 2.30888 7.48068C 1.50847 6.79804 1 5.80291 1 4.68506L -1 4.68506ZM 0.65996 8.24154L 0.65996 14.911L 2.65996 14.911L 2.65996 8.24154L 0.65996 8.24154ZM 1.65996 15.911L 7.64374 15.911L 7.64374 13.911L 1.65996 13.911L 1.65996 15.911ZM 8.64374 14.911L 8.64374 8.24154L 6.64374 8.24154L 6.64374 14.911L 8.64374 14.911ZM 8.29266 9.0024C 9.50446 7.96889 10.3037 6.43191 10.3037 4.68506L 8.3037 4.68506C 8.3037 5.80291 7.79523 6.79804 6.99482 7.48068L 8.29266 9.0024ZM 10.3037 4.68506C 10.3037 1.55196 7.78003 -1 4.65185 -1L 4.65185 1C 6.66207 1 8.3037 2.64309 8.3037 4.68506L 10.3037 4.68506Z"/>
</defs>
</svg>
