<svg xmlns="http://www.w3.org/2000/svg" xmlns:xlink="http://www.w3.org/1999/xlink">
    <symbol id="icon-clock" viewBox="0 0 32 32">
        <title>icon-clock</title>
        <path d="M16 32c8.837 0 16-7.163 16-16h-2.909c0 7.23-5.861 13.091-13.091 13.091v2.909zM32 16c0-8.837-7.163-16-16-16v2.909c7.23 0 13.091 5.861 13.091 13.091h2.909zM16 0c-8.837 0-16 7.163-16 16h2.909c0-7.23 5.861-13.091 13.091-13.091v-2.909zM0 16c0 8.837 7.163 16 16 16v-2.909c-7.23 0-13.091-5.861-13.091-13.091h-2.909z"></path>
        <path d="M13.091 7.273h2.909v11.636h-2.909v-11.636z"></path>
        <path d="M13.091 16h11.636v2.909h-11.636v-2.909z"></path>
    </symbol>
    <symbol id="icon-arrows" viewBox="0 0 30 32">
        <title>icon-arrows</title>
        <path d="M25.749 10.983c1.063 0 1.924-0.861 1.924-1.924s-0.861-1.924-1.924-1.924v3.848zM2.996 7.135c-1.063 0-1.924 0.861-1.924 1.924s0.861 1.924 1.924 1.924v-3.848zM25.749 7.135h-22.754v3.848h22.754v-3.848z"></path>
        <path d="M21.671 0.719c-0.751-0.751-1.97-0.751-2.721 0s-0.751 1.97 0 2.721l2.721-2.721zM27.382 9.148l1.36 1.36c0.361-0.361 0.564-0.85 0.564-1.361s-0.203-1-0.564-1.36l-1.36 1.361zM18.951 14.858c-0.751 0.751-0.751 1.97 0 2.721s1.97 0.751 2.721 0l-2.721-2.721zM18.951 3.44l7.070 7.069 2.721-2.721-7.070-7.069-2.721 2.721zM26.021 7.788l-7.070 7.070 2.721 2.721 7.070-7.070-2.721-2.721z"></path>
        <path d="M3.823 20.953c-1.063 0-1.924 0.861-1.924 1.924s0.861 1.924 1.924 1.924v-3.848zM26.577 24.801c1.063 0 1.924-0.861 1.924-1.924s-0.861-1.924-1.924-1.924v3.848zM3.823 24.801h22.754v-3.848h-22.754v3.848z"></path>
        <path d="M7.896 31.216c0.751 0.751 1.969 0.752 2.721 0s0.752-1.969 0-2.721l-2.721 2.721zM2.188 22.785l-1.36-1.36c-0.751 0.751-0.751 1.969-0 2.721l1.361-1.36zM10.617 17.076c0.751-0.751 0.751-1.97 0-2.721s-1.97-0.751-2.721 0l2.721 2.721zM10.617 28.495l-7.069-7.070-2.721 2.721 7.069 7.070 2.721-2.721zM3.548 24.145l7.069-7.069-2.721-2.721-7.069 7.069 2.721 2.721z"></path>
    </symbol>
</svg>